HIERARCHY
ROOT Hips
{
  OFFSET 42.9137 111.181 -41.0221
  CHANNELS 6 Xposition Yposition Zposition Zrotation Xrotation Yrotation
  JOINT ToSpine
  {
    OFFSET -2.69724 7.43032 -0.144315
    CHANNELS 3 Zrotation Xrotation Yrotation
    JOINT Spine
    {
      OFFSET -0.0310711 10.7595 1.96963
      CHANNELS 3 Zrotation Xrotation Yrotation
      JOINT Spine1
      {
        OFFSET 13.1342 3.43533 0.764692
        CHANNELS 3 Zrotation Xrotation Yrotation
        JOINT Neck
        {
          OFFSET 29.8703 7.82586 -0.130764
          CHANNELS 3 Zrotation Xrotation Yrotation
          JOINT Head
          {
            OFFSET 9.52751 0.295786 -0.907742
            CHANNELS 3 Zrotation Xrotation Yrotation
            End Site
            {
              OFFSET 16.4037 0.713936 2.7358
            }
          }
        }
        JOINT LeftShoulder
        {
          OFFSET 27.5574 4.95586 2.47156
          CHANNELS 3 Zrotation Xrotation Yrotation
          JOINT LeftArm
          {
            OFFSET 1.20734 -0.998971 20.1238
            CHANNELS 3 Zrotation Xrotation Yrotation
            JOINT LeftForeArm
            {
              OFFSET 26.8049 -0.0536703 -0.155908
              CHANNELS 3 Zrotation Xrotation Yrotation
              JOINT LeftHand
              {
                OFFSET 26.6817 0 0.320147
                CHANNELS 3 Zrotation Xrotation Yrotation
                End Site
                {
                  OFFSET 18.6119 0 0.382219
                }
              }
            }
          }
        }
        JOINT RightShoulder
        {
          OFFSET 27.5927 4.71444 -2.65209
          CHANNELS 3 Zrotation Xrotation Yrotation
          JOINT RightArm
          {
            OFFSET 2.83739 -1.17114 -18.7564
            CHANNELS 3 Zrotation Xrotation Yrotation
            JOINT RightForeArm
            {
              OFFSET 28.839 -0.0548439 1.22491
              CHANNELS 3 Zrotation Xrotation Yrotation
              JOINT RightHand
              {
                OFFSET 26.5114 0 -0.101894
                CHANNELS 3 Zrotation Xrotation Yrotation
                End Site
                {
                  OFFSET 18.2168 0 0
                }
              }
            }
          }
        }
      }
    }
  }
  JOINT LeftUpLeg
  {
    OFFSET -4.76168 -1.9167 -10.2353
    CHANNELS 3 Zrotation Xrotation Yrotation
    JOINT LeftLeg
    {
      OFFSET 2.55951 -42.0585 -8.02213
      CHANNELS 3 Zrotation Xrotation Yrotation
      JOINT LeftFoot
      {
        OFFSET 3.16357 -42.5282 -3.95426
        CHANNELS 3 Zrotation Xrotation Yrotation
        JOINT LeftToeBase
        {
          OFFSET 0.346054 -6.02161 12.8035
          CHANNELS 3 Zrotation Xrotation Yrotation
          End Site
          {
            OFFSET 0.134235 -1.35082 5.13018
          }
        }
      }
    }
  }
  JOINT RightUpLeg
  {
    OFFSET -4.94151 -1.41743 10.6446
    CHANNELS 3 Zrotation Xrotation Yrotation
    JOINT RightLeg
    {
      OFFSET -2.56294 -42.0364 -7.94377
      CHANNELS 3 Zrotation Xrotation Yrotation
      JOINT RightFoot
      {
        OFFSET -3.0952 -42.555 -4.02241
        CHANNELS 3 Zrotation Xrotation Yrotation
        JOINT RightToeBase
        {
          OFFSET -0.0828122 -6.13587 12.8035
          CHANNELS 3 Zrotation Xrotation Yrotation
          End Site
          {
            OFFSET -0.131328 -1.35082 5.13018
          }
        }
      }
    }
  }
}
MOTION
Frames:	6
Frame Time:	0.0333333
-13.3267 86.6062 -83.7831 66.9853 -30.6243 -11.6653 -70.1915 0 88.8779 93.9518 67.4264 -5.49065 -2.04299 15.2718 8.44378 -164.362 20.4983 178.247 -156.432 59.6431 -178.795 -0.804784 -17.4073 -36.3251 -57.8245 44.8731 -101.754 3.84757 7.53353 -28.2581 0.420957 0.000575436 0.35866 -1.92883 4.89501 53.3991 -60.7248 -21.9774 92.2758 -1.13426 1.8221 29.1366 0.58676 0.00033109 0.0646653 -66.5137 -1.8135 89.1199 -8.95824 66.599 -6.38262 -12.6448 14.3671 4.23732 -1.20396 -0.118296 6.26464 -16.3633 5.10548 83.6855 3.11032 52.4007 0.263769 -9.0506 -2.14515 1.31822 2.2259 -16.1403 -12.0712 
-7.8895 87.1325 -79.4822 67.8963 -35.1926 -11.9916 -70.1915 0 88.8779 114.097 67.462 -22.4337 -6.40865 17.6901 6.02179 -164.823 20.078 177.65 -155.749 59.1017 -179.435 -1.07413 -18.2232 -37.0689 -84.3895 44.1285 -80.1012 -1.51282 29.8033 -15.2171 0.420957 0.000575436 0.35866 -2.13948 5.54126 52.6201 -61.6446 -20.4114 99.8818 0.861835 -1.39282 34.6848 0.58676 0.00033109 0.0646653 -59.1113 -0.389033 91.9171 -22.9745 79.7574 12.436 -12.0956 12.9724 3.84371 -3.11141 2.30927 9.01364 -20.098 10.1807 86.7033 3.11838 57.0699 -4.70955 -5.98504 -10.5182 1.19395 0.393187 1.42201 -3.2761 
-2.64927 88.3858 -74.8551 66.5116 -38.485 -14.2412 -70.1915 0 88.8779 121.621 68.2819 -29.0586 -7.19365 20.0972 4.44865 -167.401 20.1455 178.752 -156.849 59.4694 -178.462 -0.991107 -17.8561 -37.2752 -91.9223 42.493 -68.8715 1.07665 32.3937 -15.8135 0.420957 0.000575436 0.35866 -2.22736 6.36704 49.1909 -66.6151 -21.8493 107.036 5.02883 -5.52447 42.83 0.58676 0.00033109 0.0646653 -47.3688 3.05066 94.8303 -120.372 84.3785 108.493 -7.86426 12.4352 2.73156 -0.408946 -2.81803 9.77268 -24.6857 14.5776 90.94 3.34036 57.6493 -3.72844 -6.72559 -13.9027 1.28914 1.91249 4.66417 -12.2814 
2.11456 90.5468 -70.8667 64.6064 -37.9573 -17.2574 -70.1915 0 88.8779 123.318 69.1357 -31.252 -8.60154 21.7205 3.35346 -166.627 20.9436 179.033 -156.115 60.2026 -178.994 -0.80037 -17.334 -36.5392 -91.3437 42.156 -62.8932 2.6795 29.658 -18.6421 0.420957 0.000575436 0.35866 -2.23712 6.85142 46.9273 -71.1753 -22.6718 110.405 7.55348 -5.80914 52.8307 0.58676 0.00033109 0.0646653 -32.366 3.63182 94.6992 -154.351 77.5963 143.359 -6.24468 13.1237 2.43545 0.706596 -4.06007 7.30129 -29.2996 12.9158 92.4143 2.84815 55.0785 -3.58521 -4.14228 -17.6 1.43005 1.42949 7.01765 -10.2497 
7.11294 93.5207 -66.6422 64.2229 -35.4811 -19.4106 -70.1915 0 88.8779 116.99 71.3864 -27.9502 -8.17464 22.6492 4.23296 -163.548 22.6548 178.235 -154.177 61.5377 178.862 -0.551469 -16.6238 -35.5034 -87.3935 42.3879 -61.5484 3.32678 28.8327 -20.1793 0.420957 0.000575436 0.35866 -2.11265 6.80334 45.4048 -76.4643 -23.1254 110.083 11.2204 -6.20746 61.4289 0.58676 0.00033109 0.0646653 -19.6032 2.48152 94.8608 -158.513 75.052 148.718 -5.85007 11.797 2.17133 0.625986 -4.21862 8.32794 -35.9095 9.00075 92.7794 2.23345 49.4611 -2.39821 -4.50563 -14.5703 1.29851 1.14706 -0.597765 -6.89338 
13.1695 97.7598 -62.0739 67.3564 -34.5887 -19.5421 -70.1915 0 88.8779 117.354 72.419 -30.7078 -7.40209 23.9913 3.89301 -159.306 24.1836 176.613 -153.738 62.9963 179.66 -0.183607 -15.6093 -33.2768 -84.8424 43.3661 -60.2384 3.448 28.0992 -20.7999 0.420957 0.000575436 0.35866 -1.8666 6.48277 43.2815 -80.6044 -24.688 108.173 12.6381 -5.23501 67.819 0.58676 0.00033109 0.0646653 -14.4454 1.13863 96.6314 -154.946 77.726 146.05 -3.90432 9.9862 1.52145 1.69717 -6.16723 8.42901 -47.2883 5.78905 95.012 1.31082 40.8317 -3.32177 0.107888 -8.67709 0.814067 -0.375338 -1.78829 3.88413 
